<svg id="Google_2015_logo" xmlns="http://www.w3.org/2000/svg" width="83.397" height="29.808" viewBox="0 0 83.397 29.808">
  <path id="Caminho_1924" data-name="Caminho 1924" d="M85.014,32.449c0,4.289-3.09,7.449-6.882,7.449s-6.882-3.16-6.882-7.449C71.25,28.13,74.34,25,78.132,25S85.014,28.13,85.014,32.449Zm-3.013,0c0-2.68-1.791-4.514-3.869-4.514s-3.869,1.834-3.869,4.514c0,2.653,1.791,4.514,3.869,4.514S82,35.1,82,32.449Z" transform="translate(-49.324 -16.762)" fill="#ea4335"/>
  <path id="Caminho_1925" data-name="Caminho 1925" d="M133.014,32.449c0,4.289-3.09,7.449-6.882,7.449s-6.882-3.16-6.882-7.449c0-4.315,3.09-7.449,6.882-7.449S133.014,28.13,133.014,32.449Zm-3.013,0c0-2.68-1.791-4.514-3.869-4.514s-3.869,1.834-3.869,4.514c0,2.653,1.791,4.514,3.869,4.514S130,35.1,130,32.449Z" transform="translate(-82.478 -16.762)" fill="#fbbc05"/>
  <path id="Caminho_1926" data-name="Caminho 1926" d="M180.381,25.45V38.823c0,5.5-2.988,7.748-6.52,7.748a6.576,6.576,0,0,1-6.081-4.389L170.4,41a3.832,3.832,0,0,0,3.455,2.643c2.261,0,3.662-1.515,3.662-4.366V38.2h-.105a4.519,4.519,0,0,1-3.613,1.693c-3.43,0-6.572-3.244-6.572-7.419,0-4.2,3.142-7.476,6.572-7.476a4.594,4.594,0,0,1,3.613,1.666h.105V25.453h2.861Zm-2.648,7.026c0-2.623-1.611-4.54-3.662-4.54-2.078,0-3.82,1.918-3.82,4.54,0,2.6,1.741,4.487,3.82,4.487C176.122,36.962,177.734,35.072,177.734,32.476Z" transform="translate(-115.618 -16.762)" fill="#4285f4"/>
  <path id="Caminho_1927" data-name="Caminho 1927" d="M218.438,3V24.829H215.5V3Z" transform="translate(-148.959 -2.15)" fill="#34a853"/>
  <path id="Caminho_1928" data-name="Caminho 1928" d="M239.275,34.894l2.338,1.693a6.736,6.736,0,0,1-5.716,3.3c-3.9,0-6.807-3.271-6.807-7.449,0-4.43,2.935-7.449,6.47-7.449,3.56,0,5.3,3.076,5.87,4.739l.312.846L232.573,34.7a3.48,3.48,0,0,0,3.325,2.257A3.863,3.863,0,0,0,239.275,34.894Zm-7.2-2.68,6.13-2.764a2.633,2.633,0,0,0-2.546-1.578A3.956,3.956,0,0,0,232.078,32.214Z" transform="translate(-158.346 -16.755)" fill="#ea4335"/>
  <path id="Caminho_1929" data-name="Caminho 1929" d="M11.164,14.219v-3.16h9.808a11.348,11.348,0,0,1,.145,1.908A10.981,10.981,0,0,1,18.6,20.358,9.366,9.366,0,0,1,11.167,23.6C5.3,23.6.36,18.41.36,12.036S5.3.47,11.167.47a9.76,9.76,0,0,1,7.3,3.187l-2.054,2.23A7.126,7.126,0,0,0,11.164,3.63c-4.287,0-7.64,3.751-7.64,8.406s3.353,8.406,7.64,8.406a6.864,6.864,0,0,0,5.379-2.314,6.821,6.821,0,0,0,1.577-3.912Z" transform="translate(-0.36 -0.47)" fill="#4285f4"/>
</svg>
