<svg id="Grupo_4400" data-name="Grupo 4400" xmlns="http://www.w3.org/2000/svg" width="91.243" height="92.307" viewBox="0 0 91.243 92.307">
  <path id="Caminho_1769" data-name="Caminho 1769" d="M184.437,696.79a19.086,19.086,0,0,0-8.44-2.743,15.392,15.392,0,0,0-9.4,2.07,37.869,37.869,0,0,0,9.136,1.9c5.511.511,8.7-1.223,8.7-1.223" transform="translate(-152.664 -620.307)" fill="#020707"/>
  <path id="Caminho_1770" data-name="Caminho 1770" d="M126.906,647.3a23.225,23.225,0,0,0-7.758-4.383,19.959,19.959,0,0,0-9.948-.686,28.07,28.07,0,0,0,8.483,4.638,14.236,14.236,0,0,0,9.223.43" transform="translate(-103.588 -575.244)" fill="#020707"/>
  <path id="Caminho_1771" data-name="Caminho 1771" d="M85.756,563a22.764,22.764,0,0,0-5.786-7.179A19.748,19.748,0,0,0,70.5,551.6a27.179,27.179,0,0,0,6.381,7.69A14.3,14.3,0,0,0,85.756,563" transform="translate(-70.5 -497.084)" fill="#020707"/>
  <path id="Caminho_1772" data-name="Caminho 1772" d="M97,490.694a21.674,21.674,0,0,0-3.567-8.349A18.706,18.706,0,0,0,85.5,476a25.944,25.944,0,0,0,4,8.994,13.435,13.435,0,0,0,7.5,5.7" transform="translate(-83.325 -431.648)" fill="#020707"/>
  <path id="Caminho_1773" data-name="Caminho 1773" d="M107.961,414.851a22.394,22.394,0,0,0-2.7-8.752A18.294,18.294,0,0,0,98.1,399a26.977,26.977,0,0,0,3.06,9.438,13.148,13.148,0,0,0,6.8,6.413" transform="translate(-94.098 -365)" fill="#020707"/>
  <path id="Caminho_1774" data-name="Caminho 1774" d="M176.37,602.111a18.534,18.534,0,0,0-4.669-5.9A16.091,16.091,0,0,0,164,592.7a22.225,22.225,0,0,0,5.148,6.319,11.67,11.67,0,0,0,7.222,3.092" transform="translate(-150.441 -532.658)" fill="#020707"/>
  <path id="Caminho_1775" data-name="Caminho 1775" d="M242.666,672.847a16.1,16.1,0,0,0-4.945-2.743,13.167,13.167,0,0,0-6.221-.591,19.171,19.171,0,0,0,5.409,2.9,9.418,9.418,0,0,0,5.757.43" transform="translate(-208.153 -599.025)" fill="#020707"/>
  <path id="Caminho_1776" data-name="Caminho 1776" d="M311.367,702.949a12.633,12.633,0,0,0-4.539-.605,9.833,9.833,0,0,0-4.728,1.466,15.545,15.545,0,0,0,4.931.605,6.979,6.979,0,0,0,4.336-1.466" transform="translate(-268.515 -627.554)" fill="#020707"/>
  <path id="Caminho_1777" data-name="Caminho 1777" d="M164.406,535.375a18.025,18.025,0,0,0-3.263-6.682A15.467,15.467,0,0,0,154.4,523.8a21.555,21.555,0,0,0,3.64,7.193,11.217,11.217,0,0,0,6.366,4.383" transform="translate(-142.233 -473.021)" fill="#020707"/>
  <path id="Caminho_1778" data-name="Caminho 1778" d="M171.258,447.178a17.957,17.957,0,0,0-.45-7.421,14.3,14.3,0,0,0-4.321-6.857,21.648,21.648,0,0,0,.595,8.026,10.279,10.279,0,0,0,4.176,6.252" transform="translate(-152.45 -394.342)" fill="#020707"/>
  <path id="Caminho_1779" data-name="Caminho 1779" d="M480.6,696.79a19.086,19.086,0,0,1,8.44-2.743,15.391,15.391,0,0,1,9.4,2.07,37.868,37.868,0,0,1-9.136,1.9c-5.511.511-8.7-1.223-8.7-1.223" transform="translate(-421.129 -620.307)" fill="#020707"/>
  <path id="Caminho_1780" data-name="Caminho 1780" d="M538.9,647.3a23.225,23.225,0,0,1,7.758-4.383,19.959,19.959,0,0,1,9.948-.686,28.069,28.069,0,0,1-8.483,4.638,14.235,14.235,0,0,1-9.223.43" transform="translate(-470.975 -575.244)" fill="#020707"/>
  <path id="Caminho_1781" data-name="Caminho 1781" d="M594.5,563a22.763,22.763,0,0,1,5.786-7.179,19.748,19.748,0,0,1,9.469-4.221,27.179,27.179,0,0,1-6.381,7.69A14.3,14.3,0,0,1,594.5,563" transform="translate(-518.512 -497.084)" fill="#020707"/>
  <path id="Caminho_1782" data-name="Caminho 1782" d="M605.4,490.694a21.674,21.674,0,0,1,3.567-8.349A18.706,18.706,0,0,1,616.9,476a25.943,25.943,0,0,1-4,8.994,13.435,13.435,0,0,1-7.5,5.7" transform="translate(-527.832 -431.648)" fill="#020707"/>
  <path id="Caminho_1783" data-name="Caminho 1783" d="M604.1,414.851a22.4,22.4,0,0,1,2.7-8.752,18.3,18.3,0,0,1,7.164-7.1,26.978,26.978,0,0,1-3.06,9.438,13.148,13.148,0,0,1-6.8,6.413" transform="translate(-526.72 -365)" fill="#020707"/>
  <path id="Caminho_1784" data-name="Caminho 1784" d="M520.9,602.111a18.533,18.533,0,0,1,4.67-5.9,16.09,16.09,0,0,1,7.7-3.509,22.226,22.226,0,0,1-5.148,6.319,11.67,11.67,0,0,1-7.222,3.092" transform="translate(-455.585 -532.658)" fill="#020707"/>
  <path id="Caminho_1785" data-name="Caminho 1785" d="M461.7,672.847a16.1,16.1,0,0,1,4.945-2.743,13.167,13.167,0,0,1,6.221-.591,19.172,19.172,0,0,1-5.409,2.9,9.418,9.418,0,0,1-5.757.43" transform="translate(-404.97 -599.025)" fill="#020707"/>
  <path id="Caminho_1786" data-name="Caminho 1786" d="M404.2,702.949a12.633,12.633,0,0,1,4.539-.605,9.833,9.833,0,0,1,4.728,1.466,15.545,15.545,0,0,1-4.931.605,6.979,6.979,0,0,1-4.336-1.466" transform="translate(-355.809 -627.554)" fill="#020707"/>
  <path id="Caminho_1787" data-name="Caminho 1787" d="M546.8,535.375a18.024,18.024,0,0,1,3.263-6.682,15.466,15.466,0,0,1,6.743-4.894,21.555,21.555,0,0,1-3.64,7.193,11.217,11.217,0,0,1-6.366,4.383" transform="translate(-477.729 -473.021)" fill="#020707"/>
  <path id="Caminho_1788" data-name="Caminho 1788" d="M568.869,447.178a17.956,17.956,0,0,1,.45-7.421,14.3,14.3,0,0,1,4.321-6.857,21.647,21.647,0,0,1-.595,8.026,10.279,10.279,0,0,1-4.176,6.252" transform="translate(-496.434 -394.342)" fill="#020707"/>
  <path id="Caminho_1789" data-name="Caminho 1789" d="M378.355,706.977a1.382,1.382,0,1,1-1.378-1.277,1.33,1.33,0,0,1,1.378,1.277" transform="translate(-331.356 -630.467)" fill="#020707"/>
  <path id="Caminho_1790" data-name="Caminho 1790" d="M185.143,766.683v-1.17H183.2v6.964h1.943V768.3c0-.753.522-1.129,1.334-1.129h1.059V765.5h-.9a1.432,1.432,0,0,0-1.494,1.183" transform="translate(-166.857 -682.227)" fill="#020707"/>
  <rect id="Retângulo_143" data-name="Retângulo 143" width="1.929" height="6.964" transform="translate(21.535 83.287)" fill="#020707"/>
  <path id="Caminho_1791" data-name="Caminho 1791" d="M244.22,764.7a3.907,3.907,0,0,0-2.277.712v-.592H240v9.021h1.929v-2.648a3.939,3.939,0,0,0,2.277.713,3.613,3.613,0,1,0,.015-7.206m-.174,5.552a1.968,1.968,0,1,1,2.117-1.963A2.047,2.047,0,0,1,244.046,770.252Z" transform="translate(-215.42 -681.534)" fill="#020707"/>
  <path id="Caminho_1792" data-name="Caminho 1792" d="M503.048,767.685l-1.131-.282c-.74-.175-1.03-.39-1.03-.753s.406-.605.986-.605a.888.888,0,0,1,.986.766v.04h1.784v-.04c0-1.264-1.117-2.111-2.77-2.111s-2.828.847-2.828,2.017c0,.914.653,1.6,1.784,1.882l1.073.269c.827.215,1.131.444,1.131.86,0,.444-.435.74-1.1.74a1.024,1.024,0,0,1-1.146-.995v-.04H498.9v.04c0,1.425,1.247,2.433,3.016,2.433,1.711,0,2.958-.981,2.958-2.312.014-.672-.3-1.533-1.827-1.909" transform="translate(-436.776 -681.535)" fill="#020707"/>
  <path id="Caminho_1793" data-name="Caminho 1793" d="M306.763,765.313a3.94,3.94,0,0,0-2.277-.713,3.613,3.613,0,1,0,0,7.206,3.906,3.906,0,0,0,2.277-.713v.592h1.929v-6.964h-1.929v.592m-2.1,4.853a1.968,1.968,0,1,1,2.117-1.963h0A2.056,2.056,0,0,1,304.66,770.166Z" transform="translate(-267.232 -681.448)" fill="#020707"/>
  <path id="Caminho_1794" data-name="Caminho 1794" d="M368.263,750.079a3.94,3.94,0,0,0-2.277-.713,3.613,3.613,0,1,0,0,7.206,3.906,3.906,0,0,0,2.277-.713v.592h1.929V747h-1.929v3.079m-2.117,4.853a1.969,1.969,0,1,1,2.117-1.963A2.047,2.047,0,0,1,366.146,754.932Z" transform="translate(-319.814 -666.214)" fill="#020707"/>
  <rect id="Retângulo_144" data-name="Retângulo 144" width="1.929" height="6.964" transform="translate(59.355 83.287)" fill="#020707"/>
  <path id="Caminho_1795" data-name="Caminho 1795" d="M548.086,764.7a3.613,3.613,0,1,0,3.887,3.6,3.753,3.753,0,0,0-3.887-3.6m0,5.552a1.968,1.968,0,1,1,2.117-1.963A2.047,2.047,0,0,1,548.086,770.252Z" transform="translate(-475.507 -681.534)" fill="#020707"/>
  <path id="Caminho_1796" data-name="Caminho 1796" d="M605.843,766.683v-1.17H603.9v6.964h1.943V768.3c0-.753.522-1.129,1.334-1.129h1.059V765.5h-.9a1.422,1.422,0,0,0-1.494,1.183" transform="translate(-526.549 -682.227)" fill="#020707"/>
  <path id="Caminho_1797" data-name="Caminho 1797" d="M146.11,747.1H138.7v1.6h2.741v7.851h1.929V748.7h2.741v-1.6" transform="translate(-128.81 -666.301)" fill="#020707"/>
  <path id="Caminho_1798" data-name="Caminho 1798" d="M426.256,770.655,424.53,765.6H422.5l2.581,6.964h2.32L430,765.6h-2.03l-1.711,5.055" transform="translate(-371.455 -682.313)" fill="#020707"/>
  <path id="Caminho_1799" data-name="Caminho 1799" d="M219.949,746.189a1.178,1.178,0,1,1-1.175-1.089,1.129,1.129,0,0,1,1.175,1.089" transform="translate(-196.268 -664.57)" fill="#020707"/>
  <path id="Caminho_1800" data-name="Caminho 1800" d="M480.749,746.189a1.178,1.178,0,1,1-1.175-1.089,1.129,1.129,0,0,1,1.175,1.089" transform="translate(-419.248 -664.57)" fill="#020707"/>
  <path id="Caminho_1801" data-name="Caminho 1801" d="M150.891,149.838h-3.248v8.873h-2.509v-8.873H141.9V147.7h8.991v2.138" transform="translate(-131.546 -147.485)" fill="#020707"/>
  <path id="Caminho_1802" data-name="Caminho 1802" d="M204.989,171.8v2.1h-1.262c-.914,0-1.363.4-1.363,1.264v4.423H200v-7.771h2.2v1.452a1.672,1.672,0,0,1,1.74-1.452h1.044" transform="translate(-181.221 -168.345)" fill="#020707"/>
  <path id="Caminho_1803" data-name="Caminho 1803" d="M236.4,174.3a4.039,4.039,0,0,1,4.147-4.1,3.732,3.732,0,0,1,2.625.874v-.659h2.2v7.771h-2.2v-.941a3.182,3.182,0,0,1-2.7,1.17A4.033,4.033,0,0,1,236.4,174.3m6.787,0a2.21,2.21,0,1,0-2.2,2.057A2.071,2.071,0,0,0,243.187,174.3Z" transform="translate(-212.342 -166.96)" fill="#020707"/>
  <path id="Caminho_1804" data-name="Caminho 1804" d="M304.8,171.8h2.538l1.276,4.1a11.4,11.4,0,0,1,.319,1.143c.087-.363.174-.672.319-1.143l1.276-4.1h2.538l-2.784,7.771h-2.7L304.8,171.8" transform="translate(-270.823 -168.345)" fill="#020707"/>
  <path id="Caminho_1805" data-name="Caminho 1805" d="M370.256,174.825h-6.221a1.934,1.934,0,0,0,2,1.761,1.811,1.811,0,0,0,1.885-1.183H370.2c-.406,1.9-1.914,3-4.147,3a4.07,4.07,0,0,1-4.35-4.1,4.152,4.152,0,0,1,4.336-4.1c2.639,0,4.235,1.492,4.235,4.275v.35m-6.12-1.654h3.886a1.875,1.875,0,0,0-1.987-1.277A1.976,1.976,0,0,0,364.151,173.171Z" transform="translate(-319.472 -166.96)" fill="#020707"/>
  <rect id="Retângulo_145" data-name="Retângulo 145" width="2.378" height="10.997" transform="translate(51.872 0.215)" fill="#020707"/>
  <path id="Caminho_1806" data-name="Caminho 1806" d="M460.156,174.825h-6.221a1.934,1.934,0,0,0,2,1.761,1.81,1.81,0,0,0,1.885-1.183H460.1c-.406,1.9-1.914,3-4.147,3a4.07,4.07,0,0,1-4.35-4.1,4.152,4.152,0,0,1,4.336-4.1c2.639,0,4.234,1.492,4.234,4.275v.35m-6.12-1.654h3.886a1.875,1.875,0,0,0-1.987-1.277A1.976,1.976,0,0,0,454.051,173.171Z" transform="translate(-396.335 -166.96)" fill="#020707"/>
  <path id="Caminho_1807" data-name="Caminho 1807" d="M523,171.8v2.1h-1.262c-.914,0-1.363.4-1.363,1.264v4.423H518v-7.771h2.2v1.452a1.662,1.662,0,0,1,1.74-1.452H523" transform="translate(-453.106 -168.345)" fill="#020707"/>
  <path id="Caminho_1808" data-name="Caminho 1808" d="M556.9,175.631h2.407a.861.861,0,0,0,.928.9c.566,0,.9-.255.9-.645,0-.43-.377-.659-1.131-.86l-1.1-.3a2.223,2.223,0,0,1-1.871-2.151c0-1.425,1.392-2.38,3.118-2.38,1.972,0,3.045,1.035,3.045,2.487h-2.219a.775.775,0,0,0-.827-.739c-.478,0-.8.255-.8.551,0,.363.3.538.972.713l1.218.309a2.2,2.2,0,0,1,1.9,2.151c0,1.465-1.233,2.729-3.219,2.729-1.842,0-3.321-1.049-3.321-2.77" transform="translate(-486.365 -166.96)" fill="#020707"/>
  <path id="Caminho_1809" data-name="Caminho 1809" d="M605.992,149.891h.218a1.123,1.123,0,0,0,1.2-1.089.67.67,0,0,1-.333.067,1.4,1.4,0,0,1-1.479-1.385,1.44,1.44,0,0,1,1.494-1.385c1.073,0,1.668.914,1.668,2.111,0,1.923-1,2.81-2.407,2.81h-.363v-1.129" transform="translate(-528.002 -146.1)" fill="#020707"/>
  <path id="Caminho_1810" data-name="Caminho 1810" d="M202.9,256.927a5.748,5.748,0,0,1,5.989-5.727c3.19,0,5.192,1.64,5.641,4.248h-2.567a2.954,2.954,0,0,0-3.089-2.07,3.55,3.55,0,0,0,0,7.1,2.929,2.929,0,0,0,3.089-2.1h2.61c-.508,2.635-2.741,4.262-5.7,4.262a5.684,5.684,0,0,1-5.975-5.714" transform="translate(-183.7 -237.07)" fill="#020707"/>
  <path id="Caminho_1811" data-name="Caminho 1811" d="M290.615,252.9h2.378v4.289a3.042,3.042,0,0,1,2.668-1.277,2.674,2.674,0,0,1,2.828,2.864V263.9h-2.378v-4.49a1.566,1.566,0,0,0-3.132,0v4.49H290.6v-11" transform="translate(-258.682 -238.542)" fill="#020707"/>
  <path id="Caminho_1812" data-name="Caminho 1812" d="M351.3,279.5c0-2.286,1.8-4.1,4.524-4.1s4.524,1.828,4.524,4.1-1.8,4.1-4.524,4.1-4.524-1.828-4.524-4.1m6.671,0a2.156,2.156,0,1,0-2.161,2.057A2.027,2.027,0,0,0,357.971,279.5Z" transform="translate(-310.58 -258.017)" fill="#020707"/>
  <path id="Caminho_1813" data-name="Caminho 1813" d="M418.1,250.385a1.5,1.5,0,1,1,1.494,1.385,1.423,1.423,0,0,1-1.494-1.385m.3,2.38h2.378v7.771H418.4Z" transform="translate(-367.693 -235.166)" fill="#020707"/>
  <path id="Caminho_1814" data-name="Caminho 1814" d="M443.2,279.5a4.139,4.139,0,0,1,4.423-4.1c2.639,0,4.075,1.3,4.321,3.133h-2.48a1.76,1.76,0,0,0-1.842-1.089,2.057,2.057,0,0,0,0,4.114,1.747,1.747,0,0,0,1.842-1.089h2.48c-.392,1.909-1.769,3.132-4.321,3.132a4.147,4.147,0,0,1-4.423-4.1" transform="translate(-389.153 -258.017)" fill="#020707"/>
  <path id="Caminho_1815" data-name="Caminho 1815" d="M515.356,279.925h-6.221a1.934,1.934,0,0,0,2,1.761,1.81,1.81,0,0,0,1.885-1.183H515.3c-.406,1.9-1.914,3-4.147,3a4.07,4.07,0,0,1-4.35-4.1,4.152,4.152,0,0,1,4.336-4.1c2.639,0,4.234,1.492,4.234,4.275v.349m-6.12-1.654h3.887a1.875,1.875,0,0,0-1.987-1.277A2.028,2.028,0,0,0,509.251,278.271Z" transform="translate(-443.53 -257.93)" fill="#020707"/>
  <path id="Caminho_1816" data-name="Caminho 1816" d="M560.2,257.5h1.421v.282h-.551v1.479h-.319v-1.479H560.2V257.5" transform="translate(-489.186 -242.523)" fill="#020707"/>
  <path id="Caminho_1817" data-name="Caminho 1817" d="M572.714,258.818l-.522-1.318H571.8v1.761h.319v-.981c0-.094-.015-.175-.015-.269l.493,1.25h.232l.493-1.25a1.676,1.676,0,0,0-.014.269v.981h.319V257.5h-.391l-.522,1.318" transform="translate(-499.104 -242.523)" fill="#020707"/>
  <g id="Grupo_29" data-name="Grupo 29" transform="translate(20.737 27.883)">
    <path id="Caminho_1818" data-name="Caminho 1818" d="M238.385,353.5c-13.747,0-24.885,10.325-24.885,23.07s11.137,23.07,24.885,23.07,24.885-10.325,24.885-23.07S252.132,353.5,238.385,353.5Zm0,43.828c-12.355,0-22.376-9.29-22.376-20.744s10.021-20.744,22.376-20.744,22.376,9.29,22.376,20.744S250.74,397.328,238.385,397.328Z" transform="translate(-213.5 -353.5)" fill="#020707"/>
    <g id="Grupo_28" data-name="Grupo 28" transform="translate(5.018 4.665)">
      <path id="Caminho_1819" data-name="Caminho 1819" d="M350.9,473.9a15.863,15.863,0,0,0-5.8,1.076c3.292,1.17,5.8,3.9,5.8,7.085,0-3.186,2.494-5.915,5.8-7.085A15.863,15.863,0,0,0,350.9,473.9Z" transform="translate(-331.034 -462.378)" fill="#020707"/>
      <path id="Caminho_1820" data-name="Caminho 1820" d="M301.121,499.6a4.854,4.854,0,1,0,5.221,4.84A5.038,5.038,0,0,0,301.121,499.6Zm0,7.381a2.548,2.548,0,1,1,2.741-2.541A2.653,2.653,0,0,1,301.121,506.981Z" transform="translate(-288.968 -484.623)" fill="#020707"/>
      <path id="Caminho_1821" data-name="Caminho 1821" d="M407.521,499.6a4.854,4.854,0,1,0,5.221,4.84A5.038,5.038,0,0,0,407.521,499.6Zm0,7.381a2.548,2.548,0,1,1,2.741-2.541A2.653,2.653,0,0,1,407.521,506.981Z" transform="translate(-379.939 -484.623)" fill="#020707"/>
      <path id="Caminho_1822" data-name="Caminho 1822" d="M267.967,388.2c-10.978,0-19.867,8.255-19.867,18.419s8.9,18.419,19.867,18.419,19.867-8.255,19.867-18.419S278.945,388.2,267.967,388.2Zm7.715,26.982a8.036,8.036,0,0,1-5.25-1.909l-2.48,2.5-2.465-2.5a8.036,8.036,0,0,1-5.25,1.909,7.446,7.446,0,0,1-7.715-7.152,6.887,6.887,0,0,1,2.523-5.284l-2.523-2.541h5.612a18.632,18.632,0,0,1,19.679,0h5.6l-2.523,2.541a6.908,6.908,0,0,1,2.523,5.284C283.411,411.983,279.945,415.183,275.682,415.183Z" transform="translate(-248.1 -388.2)" fill="#020707"/>
    </g>
  </g>
</svg>
