<svg id="icone_arcondicionado" xmlns="http://www.w3.org/2000/svg" width="30.196" height="22.156" viewBox="0 0 30.196 22.156">
  <path id="Caminho_1893" data-name="Caminho 1893" d="M270.771,276.906a.457.457,0,0,0,.118-.7.659.659,0,0,0-.826-.1,3.06,3.06,0,0,0,0,5.338,2.136,2.136,0,0,1,0,3.726.457.457,0,0,0-.118.7.659.659,0,0,0,.826.1,3.06,3.06,0,0,0,0-5.338,2.136,2.136,0,0,1,0-3.726Z" transform="translate(-252.665 -263.915)" fill="#747575"/>
  <path id="Caminho_1894" data-name="Caminho 1894" d="M360.771,276.906a.457.457,0,0,0,.118-.7.659.659,0,0,0-.826-.1,3.06,3.06,0,0,0,0,5.338,2.136,2.136,0,0,1,0,3.726.457.457,0,0,0-.118.7.659.659,0,0,0,.826.1,3.06,3.06,0,0,0,0-5.338,2.136,2.136,0,0,1,0-3.726Z" transform="translate(-337.357 -263.915)" fill="#747575"/>
  <path id="Caminho_1895" data-name="Caminho 1895" d="M180.771,276.906a.457.457,0,0,0,.118-.7.659.659,0,0,0-.826-.1,3.06,3.06,0,0,0,0,5.338,2.136,2.136,0,0,1,0,3.726.457.457,0,0,0-.118.7.659.659,0,0,0,.826.1,3.06,3.06,0,0,0,0-5.338,2.136,2.136,0,0,1,0-3.726Z" transform="translate(-167.973 -263.914)" fill="#747575"/>
  <path id="Caminho_1896" data-name="Caminho 1896" d="M90.771,276.906a.457.457,0,0,0,.118-.7.659.659,0,0,0-.826-.1,3.06,3.06,0,0,0,0,5.338,2.136,2.136,0,0,1,0,3.726.457.457,0,0,0-.118.7.659.659,0,0,0,.826.1,3.06,3.06,0,0,0,0-5.338,2.136,2.136,0,0,1,0-3.726Z" transform="translate(-83.281 -263.914)" fill="#747575"/>
  <path id="Caminho_1897" data-name="Caminho 1897" d="M27.837,36H2.359A2.21,2.21,0,0,0,0,38.014v7.553a.552.552,0,0,0,.59.5H12.444a.51.51,0,1,0,0-1.007H4.718V43.05H25.477v2.014H17.752a.51.51,0,1,0,0,1.007H29.606a.552.552,0,0,0,.59-.5V38.014A2.21,2.21,0,0,0,27.837,36Z" transform="translate(0 -36)" fill="#747575"/>
</svg>
