<svg xmlns="http://www.w3.org/2000/svg" width="11.787" height="18.5" viewBox="0 0 11.787 18.5">
  <g id="Grupo_3994" data-name="Grupo 3994" transform="translate(0.254 0.25)">
    <g id="Grupo_3943" data-name="Grupo 3943" transform="translate(3.939 16.691)">
      <g id="Grupo_3942" data-name="Grupo 3942" transform="translate(0)">
        <path id="Caminho_1829" data-name="Caminho 1829" d="M210.8,478.582a.352.352,0,0,0-.457.2.411.411,0,0,1-.381.252h-1.284a.411.411,0,0,1-.381-.252.351.351,0,1,0-.653.262,1.105,1.105,0,0,0,1.033.693h1.284a1.105,1.105,0,0,0,1.033-.693A.352.352,0,0,0,210.8,478.582Z" transform="translate(-207.616 -478.556)" fill="#919191"/>
      </g>
    </g>
    <g id="Grupo_3945" data-name="Grupo 3945">
      <g id="Grupo_3944" data-name="Grupo 3944" transform="translate(0)">
        <path id="Caminho_1830" data-name="Caminho 1830" d="M106.8,15.04a1.735,1.735,0,0,0-.832-1.17,1.747,1.747,0,0,0,.625-1.617,4.433,4.433,0,0,0-2.458-3.334,4.033,4.033,0,0,0-1.842-6.64,1.521,1.521,0,0,0,.356-.982,1.3,1.3,0,0,0-1.3-1.3h0a1.177,1.177,0,0,0-.761.264.96.96,0,0,0-.346.745.351.351,0,1,0,.7,0,.26.26,0,0,1,.1-.207.476.476,0,0,1,.308-.1h0a.594.594,0,0,1,.593.593.829.829,0,0,1-.829.829h-.026a4.033,4.033,0,0,0-2.841,6.791,4.433,4.433,0,0,0-2.458,3.334,1.747,1.747,0,0,0,.625,1.617,1.736,1.736,0,0,0-.5,2.57l.753.962a1.567,1.567,0,0,0,1.235.6,1.55,1.55,0,0,0,.777-.207,1.57,1.57,0,0,0,.668-1.938L98.9,14.722a1.735,1.735,0,0,0-.107-.218c-.329-.451-.443-.426-.668-.7v-.741a.173.173,0,0,1,.173-.173h5.795a.173.173,0,0,1,.173.173v.79a1.734,1.734,0,0,0-.775.873l-.457,1.133a1.57,1.57,0,0,0,.668,1.938,1.55,1.55,0,0,0,.777.207,1.567,1.567,0,0,0,1.235-.6l.753-.962A1.735,1.735,0,0,0,106.8,15.04ZM97.863,6.161a3.331,3.331,0,1,1,3.331,3.332A3.335,3.335,0,0,1,97.863,6.161Zm.384,8.823.457,1.133a.859.859,0,0,1-1.474.851l-.753-.962a1.032,1.032,0,1,1,1.77-1.022Zm5.847-3.5a.352.352,0,0,0-.351.352v.352H98.648v-.352a.351.351,0,1,0-.7,0v.425a.877.877,0,0,0-.525.8v.5a1.048,1.048,0,0,1-.931-1.2,3.712,3.712,0,0,1,2.345-2.926,4.024,4.024,0,0,0,4.72,0,3.712,3.712,0,0,1,2.345,2.926,1.048,1.048,0,0,1-.932,1.2v-.5a.877.877,0,0,0-.522-.8v-.427A.352.352,0,0,0,104.094,11.48Zm1.817,4.527-.753.962a.859.859,0,0,1-1.474-.851l.457-1.133a1.032,1.032,0,1,1,1.77,1.022Z" transform="translate(-95.555 0)" fill="#919191" stroke="#919191" stroke-width="0.5"/>
      </g>
    </g>
  </g>
</svg>
