<svg xmlns="http://www.w3.org/2000/svg" width="27.631" height="18.698" viewBox="0 0 27.631 18.698">
  <g id="icone_cama" transform="translate(0)">
    <g id="Grupo_4452" data-name="Grupo 4452" transform="translate(1.161 0)">
      <path id="Caminho_1898" data-name="Caminho 1898" d="M153.12,187.12h-.943v-6.959a.833.833,0,0,0-.858-.8H129.827a.833.833,0,0,0-.858.8v6.959h-.943v-6.959a1.715,1.715,0,0,1,1.8-1.609h21.492a1.715,1.715,0,0,1,1.8,1.609Z" transform="translate(-128.027 -178.552)" fill="#747575"/>
    </g>
    <g id="Grupo_4453" data-name="Grupo 4453" transform="translate(4.297 4.172)">
      <path id="Caminho_1899" data-name="Caminho 1899" d="M155.425,213.577h-7.442v-2.949a1.077,1.077,0,0,1,1.151-.983h5.14a1.077,1.077,0,0,1,1.151.983Z" transform="translate(-147.983 -209.645)" fill="#747575"/>
    </g>
    <g id="Grupo_4454" data-name="Grupo 4454" transform="translate(15.522 4.172)">
      <path id="Caminho_1900" data-name="Caminho 1900" d="M226.852,213.577H219.41v-2.949a1.077,1.077,0,0,1,1.151-.983h5.14a1.077,1.077,0,0,1,1.151.983Z" transform="translate(-219.41 -209.645)" fill="#747575"/>
    </g>
    <g id="Grupo_4455" data-name="Grupo 4455" transform="translate(0 8.165)">
      <path id="Caminho_1901" data-name="Caminho 1901" d="M120.641,244.931v5.008h3.207v-1.474a1.385,1.385,0,0,1,1.48-1.264h18.256a1.385,1.385,0,0,1,1.48,1.264v1.474h3.207v-9.374a1.269,1.269,0,0,0-1.357-1.159H122a1.27,1.27,0,0,0-1.357,1.159Z" transform="translate(-120.641 -239.407)" fill="#747575"/>
    </g>
  </g>
</svg>
