<svg id="icone_arealazer" xmlns="http://www.w3.org/2000/svg" width="33.689" height="16.426" viewBox="0 0 33.689 16.426">
  <g id="Grupo_4457" data-name="Grupo 4457" transform="translate(0 0)">
    <path id="Caminho_1902" data-name="Caminho 1902" d="M33.119,21.982,18.854,32.631a4.082,4.082,0,0,1-2.656.935,3.541,3.541,0,0,1-2.118-.9L.593,21.789,0,22.2,13.446,33.038a4.388,4.388,0,0,0,2.685,1.128c.08,0,.16.007.24.007a5.076,5.076,0,0,0,3.053-1.115L33.689,22.408Z" transform="translate(0 -17.747)" fill="#747575"/>
    <ellipse id="Elipse_64" data-name="Elipse 64" cx="2.553" cy="2.18" rx="2.553" ry="2.18" transform="translate(21.98)" fill="#747575"/>
    <path id="Caminho_1903" data-name="Caminho 1903" d="M18.374,27.286a2.593,2.593,0,0,0,.8.59,1.261,1.261,0,0,0,.324.134,2.581,2.581,0,0,0,2.394-.358q3.411-2.519,6.818-5.038a2.353,2.353,0,0,0,.314-.278L33.656,18.8c1.173-.9-.555-2.361-1.722-1.47l-3.346,2.556a2.652,2.652,0,0,0-3.122-.012L23.4,21.4q-.3-.864-.533-1.747l.255-.127-.046-.067.414-.33L20.66,15.021l-.935,1.269.055.081-.012.007,1.478,2.158a1.05,1.05,0,0,0-.847,1.231,22.019,22.019,0,0,0,1,3.114l-1.541,1.138q-.7-2.048-1.41-4.1a1.211,1.211,0,0,0-1.172-.763l-5.539.122a1.362,1.362,0,0,0-.168.018L10.134,18.2c-1.166-.891-2.893.574-1.721,1.47Q13.4,23.479,18.374,27.286Zm2.28-11.351-.557.277.556-.753,2.5,3.631-.216.172Zm-4.286,5.32q.4,1.162.8,2.323-1.487-1.135-2.974-2.274Z" transform="translate(-3.619 -14.151)" fill="#747575"/>
  </g>
</svg>
