<svg xmlns="http://www.w3.org/2000/svg" width="23.102" height="20.85" viewBox="0 0 23.102 20.85">
  <g id="icone_cafe" transform="translate(0 1.325)">
    <path id="Caminho_1887" data-name="Caminho 1887" d="M133.522,62.034a2.24,2.24,0,0,0-1.14,1.12,1.815,1.815,0,0,0,.026,1.484,7.7,7.7,0,0,0,1.06,1.371,1.593,1.593,0,0,1,.411,1.547" transform="translate(-124.222 -62.034)" fill="none" stroke="#747575" stroke-linecap="round" stroke-linejoin="round" stroke-width="2"/>
    <path id="Caminho_1888" data-name="Caminho 1888" d="M197.4,62.034a2.24,2.24,0,0,0-1.14,1.12,1.815,1.815,0,0,0,.026,1.484,7.7,7.7,0,0,0,1.06,1.371,1.593,1.593,0,0,1,.411,1.547" transform="translate(-184.06 -62.034)" fill="none" stroke="#747575" stroke-linecap="round" stroke-linejoin="round" stroke-width="2"/>
    <path id="Caminho_1889" data-name="Caminho 1889" d="M261.281,62.034a2.24,2.24,0,0,0-1.14,1.12,1.816,1.816,0,0,0,.026,1.484,7.7,7.7,0,0,0,1.06,1.371,1.593,1.593,0,0,1,.411,1.547" transform="translate(-243.898 -62.034)" fill="none" stroke="#747575" stroke-linecap="round" stroke-linejoin="round" stroke-width="2"/>
    <g id="Grupo_4450" data-name="Grupo 4450" transform="translate(0 6.867)">
      <g id="Grupo_4449" data-name="Grupo 4449" transform="translate(0 2.458)">
        <path id="Caminho_1890" data-name="Caminho 1890" d="M11.257,241.538a8.351,8.351,0,0,1-2.816-.408c-1.822-.66-3.005-2.146-2.877-3.613A3.235,3.235,0,0,1,7.9,234.862a4.632,4.632,0,0,1,3.822.48.731.731,0,0,1,.106,1.142,1.065,1.065,0,0,1-1.338.091,2.525,2.525,0,0,0-1.927-.194,1.574,1.574,0,0,0-1.106,1.257c-.076.875.81,1.669,1.726,2a10.914,10.914,0,0,0,4.057.171.924.924,0,0,1,1.042.723.854.854,0,0,1-.846.889C12.737,241.483,11.995,241.538,11.257,241.538Z" transform="translate(-5.555 -234.656)" fill="#747575"/>
      </g>
      <path id="Caminho_1891" data-name="Caminho 1891" d="M93.29,190.276a1.163,1.163,0,0,0-1.256-1.124H75.813a1.163,1.163,0,0,0-1.256,1.124,13.874,13.874,0,0,0,4.909,9.471h8.914A13.874,13.874,0,0,0,93.29,190.276Z" transform="translate(-70.19 -189.152)" fill="#747575"/>
      <path id="Caminho_1892" data-name="Caminho 1892" d="M124.487,385.29a3.326,3.326,0,0,0-1.87,2.063h12.655a3.326,3.326,0,0,0-1.87-2.063" transform="translate(-115.211 -374.695)" fill="#747575"/>
    </g>
  </g>
</svg>
