<svg xmlns="http://www.w3.org/2000/svg" width="18" height="14.143" viewBox="0 0 18 14.143">
  <path id="fi-rr-envelope" d="M14.25,1H3.75A3.518,3.518,0,0,0,0,4.214v7.714a3.518,3.518,0,0,0,3.75,3.214h10.5A3.518,3.518,0,0,0,18,11.929V4.214A3.518,3.518,0,0,0,14.25,1ZM3.75,2.286h10.5A2.275,2.275,0,0,1,16.335,3.5L10.592,8.422a2.529,2.529,0,0,1-3.183,0L1.665,3.5A2.275,2.275,0,0,1,3.75,2.286Zm10.5,11.571H3.75A2.108,2.108,0,0,1,1.5,11.929V5.179L6.348,9.331a4.211,4.211,0,0,0,5.3,0L16.5,5.179v6.75A2.108,2.108,0,0,1,14.25,13.857Z" transform="translate(0 -1)" fill="#919191"/>
</svg>
