<svg xmlns="http://www.w3.org/2000/svg" width="26.998" height="23.053" viewBox="0 0 26.998 23.053">
  <path id="icone_piscina" d="M2.3,16.312a5.419,5.419,0,0,1,6.8,0h0a7.78,7.78,0,0,0,9.787,0h0a5.418,5.418,0,0,1,6.8,0,1.187,1.187,0,0,0,1.492,0,.811.811,0,0,0,0-1.274A7.84,7.84,0,0,0,19.2,13.931V2.672a1.032,1.032,0,0,1,2.039,0,1.068,1.068,0,0,0,2.109,0A2.931,2.931,0,0,0,20.221,0a2.931,2.931,0,0,0-3.129,2.671V5.313H10.906V2.672a.955.955,0,0,1,1.019-.87.955.955,0,0,1,1.019.87.987.987,0,0,0,1.055.9.987.987,0,0,0,1.055-.9A2.931,2.931,0,0,0,11.925,0,2.931,2.931,0,0,0,8.8,2.672V13.931A7.84,7.84,0,0,0,.809,15.039a.811.811,0,0,0,0,1.274,1.186,1.186,0,0,0,1.491,0Zm8.605-1.033V12.427h6.187V15.28A5.452,5.452,0,0,1,10.906,15.28Zm6.187-8.166v3.512H10.906V7.114Zm10.1,12.934a.811.811,0,0,1,0,1.273,1.186,1.186,0,0,1-1.492,0,5.419,5.419,0,0,0-6.8,0,7.779,7.779,0,0,1-9.788,0,5.419,5.419,0,0,0-6.805,0,1.186,1.186,0,0,1-1.491,0,.811.811,0,0,1,0-1.273,7.794,7.794,0,0,1,9.788,0,5.409,5.409,0,0,0,6.805,0,7.794,7.794,0,0,1,9.788,0Zm0,0" transform="translate(-0.5 0)" fill="#747575"/>
</svg>
