<svg id="fi-rr-following" xmlns="http://www.w3.org/2000/svg" width="12" height="16" viewBox="0 0 12 16">
  <path id="Caminho_1559" data-name="Caminho 1559" d="M7,8.005A4,4,0,1,0,3,4a4,4,0,0,0,4,4ZM7,1.334A2.669,2.669,0,1,1,4.333,4,2.667,2.667,0,0,1,7,1.334Z" transform="translate(-0.999)" fill="#919191"/>
  <path id="Caminho_1560" data-name="Caminho 1560" d="M6,14a6.009,6.009,0,0,0-6,6,.667.667,0,1,0,1.333,0,4.667,4.667,0,1,1,9.333,0A.667.667,0,1,0,12,20,6.009,6.009,0,0,0,6,14Z" transform="translate(0 -4.671)" fill="#919191"/>
</svg>
