<svg xmlns="http://www.w3.org/2000/svg" width="29.474" height="19.627" viewBox="0 0 29.474 19.627">
  <g id="icone_wifi" transform="translate(0)">
    <path id="Caminho_1918" data-name="Caminho 1918" d="M2.287,0A2.444,2.444,0,0,1,4.738,2.146,2.039,2.039,0,0,1,2.453,4.124,2.444,2.444,0,0,1,0,1.98,2.039,2.039,0,0,1,2.287,0Z" transform="translate(11.934 15.628) rotate(-14.196)" fill="#747575"/>
    <path id="Caminho_1879" data-name="Caminho 1879" d="M173.839,221.907a17.515,17.515,0,0,1,11.959,4.511l2.778-2.166a22.315,22.315,0,0,0-29.474,0l2.778,2.166A17.515,17.515,0,0,1,173.839,221.907Z" transform="translate(-159.102 -218.694)" fill="#747575"/>
    <path id="Caminho_1880" data-name="Caminho 1880" d="M206.875,275.265a8.215,8.215,0,0,1,5.609,2.116l2.778-2.165a12.7,12.7,0,0,0-16.774,0l2.778,2.166A8.214,8.214,0,0,1,206.875,275.265Z" transform="translate(-192.138 -264.707)" fill="#747575"/>
  </g>
</svg>
