<svg id="ico_traslados" data-name="ico traslados" xmlns="http://www.w3.org/2000/svg" width="41" height="20.336" viewBox="0 0 41 20.336">
  <g id="Grupo_4416" data-name="Grupo 4416" transform="translate(4.705 13.831)">
    <path id="Caminho_1871" data-name="Caminho 1871" d="M2574.69-680.364a3.257,3.257,0,0,1-3.253-3.253,3.257,3.257,0,0,1,3.253-3.253,3.256,3.256,0,0,1,3.252,3.253A3.257,3.257,0,0,1,2574.69-680.364Z" transform="translate(-2571.437 686.869)" fill="#00453e"/>
  </g>
  <g id="Grupo_4417" data-name="Grupo 4417" transform="translate(30.9 13.831)">
    <path id="Caminho_1872" data-name="Caminho 1872" d="M4174.841-680.364a3.256,3.256,0,0,1-3.252-3.253,3.256,3.256,0,0,1,3.252-3.253,3.256,3.256,0,0,1,3.253,3.253A3.256,3.256,0,0,1,4174.841-680.364Z" transform="translate(-4171.589 686.869)" fill="#00453e"/>
  </g>
  <g id="Grupo_4418" data-name="Grupo 4418" transform="translate(0 13.831)">
    <path id="Caminho_1873" data-name="Caminho 1873" d="M2288.387-685.912h-2.054a.479.479,0,0,1-.479-.479.479.479,0,0,1,.479-.479h2.054a.478.478,0,0,1,.478.479A.478.478,0,0,1,2288.387-685.912Z" transform="translate(-2285.854 686.869)" fill="#747575"/>
  </g>
  <g id="Grupo_4419" data-name="Grupo 4419" transform="translate(38.141 13.831)">
    <path id="Caminho_1874" data-name="Caminho 1874" d="M4613.532-685.912h-1.9a.479.479,0,0,1-.479-.479.479.479,0,0,1,.479-.479h1.9a.479.479,0,0,1,.479.479A.479.479,0,0,1,4613.532-685.912Z" transform="translate(-4611.152 686.869)" fill="#747575"/>
  </g>
  <g id="Grupo_4420" data-name="Grupo 4420" transform="translate(0 0)">
    <path id="Caminho_1875" data-name="Caminho 1875" d="M4640.056-864.156a.057.057,0,0,0-.005.06l.24.57a.608.608,0,0,0,.562.371h.831v-1.031h-1.573A.058.058,0,0,0,4640.056-864.156Z" transform="translate(-4601.428 875.095)" fill="#00453e"/>
    <path id="Caminho_1876" data-name="Caminho 1876" d="M2326.59-1513.518h-1.306a1.556,1.556,0,0,1-1.436-.956l-.24-.57a1.023,1.023,0,0,1,.089-.963,1.013,1.013,0,0,1,.848-.457h2.044a.475.475,0,0,1,.264.079v-.575a4.922,4.922,0,0,0-.339-1.8l-2.5-6.393a1.975,1.975,0,0,0-1.848-1.266h-34.245a2.078,2.078,0,0,0-2.071,2.08v13.4a2.078,2.078,0,0,0,2.071,2.08h3.053a.478.478,0,0,0,.477-.478h30.894a.478.478,0,0,0,.477.478h1.956a2.078,2.078,0,0,0,2.071-2.08v-2.665A.474.474,0,0,1,2326.59-1513.518Zm-31.295-4.6a.477.477,0,0,1-.477.478h-5.548a.478.478,0,0,1-.477-.478v-4.628a.478.478,0,0,1,.477-.479h5.548a.477.477,0,0,1,.477.479Zm8.8,0a.478.478,0,0,1-.477.478h-5.548a.477.477,0,0,1-.477-.478v-4.628a.478.478,0,0,1,.477-.479h5.548a.478.478,0,0,1,.477.479Zm8.8,0a.477.477,0,0,1-.477.478h-5.548a.477.477,0,0,1-.477-.478v-4.628a.478.478,0,0,1,.477-.479h5.548a.477.477,0,0,1,.477.479Zm5.1.478a.478.478,0,0,1-.477-.478v-4.628a.478.478,0,0,1,.477-.479h3.959a.477.477,0,0,1,.443.3l1.814,4.627a.479.479,0,0,1-.049.445.476.476,0,0,1-.395.209Z" transform="translate(-2285.854 1526.416)" fill="#71aca7"/>
  </g>
</svg>
