<svg id="ico_passeios" data-name="ico passeios" xmlns="http://www.w3.org/2000/svg" width="34.459" height="26.117" viewBox="0 0 34.459 26.117">
  <path id="Caminho_1863" data-name="Caminho 1863" d="M455.546,1097.7a1.331,1.331,0,0,0,1.693-2.054l-3.122-2.572.31-.443a2.63,2.63,0,0,0,.27-.385l.245-.351a1.257,1.257,0,0,0,.09-.15,3.308,3.308,0,0,1-.247-.282,3.2,3.2,0,0,1-.2-.283,3.749,3.749,0,0,1-.6-1.924,3.674,3.674,0,0,1,.014-.466,2.738,2.738,0,0,0-.328-.211,1.727,1.727,0,0,0,.419-.337,3.779,3.779,0,0,1,.42-1.038,1.671,1.671,0,0,0-2.26-1.638l-9.363,3.538a1.67,1.67,0,0,0-.32,2.963l-5.191,2.315-5.877-1.063a1.326,1.326,0,0,0-1.5,1.712l-.036,4.4,1.3-3.322-.124-.157,6.166,1.117a1.356,1.356,0,0,0,.778-.1l4.3-1.914s0,.011.006.014a2.637,2.637,0,0,0,.487.764l-1.725,4.391-5.9,2.1a1.33,1.33,0,0,0-.821,1.65l-.032,4.253,1.3-3.322h0a1.307,1.307,0,0,0,.447-.075l6.47-2.3a1.328,1.328,0,0,0,.793-.767l2.011-5.122a2.574,2.574,0,0,0,.451-.142l3.676-1.526-.413.591a1.336,1.336,0,0,0-.154,1.236l1.535,4.055a1.329,1.329,0,1,0,2.487-.94l-1.285-3.4.883-1.265Zm-12.433-5.662,0-.009-.042-.115.444-.166,9.3-3.457.27-.1.047.123-.07.026Z" transform="translate(-429.927 -1082.119)" fill="#71aca7"/>
  <path id="Caminho_1864" data-name="Caminho 1864" d="M520.311,1088.826a2.672,2.672,0,0,0-1.674.584,2.7,2.7,0,1,0,1.674-.584Z" transform="translate(-492.534 -1084.525)" fill="#00453e"/>
  <path id="Caminho_1865" data-name="Caminho 1865" d="M535.611,1102.959a1.617,1.617,0,1,0,1.554-2.068,1.661,1.661,0,0,0-.37.043,1.611,1.611,0,0,0-1.184,2.025Zm1.554-.872a.422.422,0,1,1-.422.422A.423.423,0,0,1,537.164,1102.087Z" transform="translate(-505.333 -1093.134)" fill="#71aca7"/>
  <ellipse id="Elipse_59" data-name="Elipse 59" cx="0.658" cy="0.658" rx="0.658" ry="0.658" transform="translate(33.142 5.151)" fill="#71aca7"/>
  <path id="Caminho_1866" data-name="Caminho 1866" d="M538.292,1075.124a.658.658,0,1,0-.659-.657A.658.658,0,0,0,538.292,1075.124Z" transform="translate(-506.823 -1073.807)" fill="#71aca7"/>
</svg>
