<svg xmlns="http://www.w3.org/2000/svg" width="15.191" height="31.977" viewBox="0 0 15.191 31.977">
  <g id="ico_hospedagem" data-name="ico hospedagem" transform="translate(0.5 0.505)">
    <path id="Caminho_1878" data-name="Caminho 1878" d="M151.543,146.092V156.88a2.25,2.25,0,0,0,2.27,2.23h9.651a2.25,2.25,0,0,0,2.27-2.23V135.256a7.1,7.1,0,0,0-13.893-2.075,1.32,1.32,0,0,0,1.286,1.685h0a1.348,1.348,0,0,0,1.31-1.026,4.341,4.341,0,0,1,8.527.828v2.587a2.537,2.537,0,0,1-1.719,2.389l-6.746,2.344a4.36,4.36,0,0,0-2.954,4.105Z" transform="translate(-151.543 -128.138)" fill="#71aca7" stroke="rgba(0,0,0,0)" stroke-miterlimit="10" stroke-width="1"/>
    <ellipse id="Elipse_63" data-name="Elipse 63" cx="3.191" cy="3.153" rx="3.191" ry="3.153" transform="translate(3.904 19.55)" fill="#00453e" stroke="rgba(0,0,0,0)" stroke-miterlimit="10" stroke-width="1"/>
  </g>
</svg>
