<svg xmlns="http://www.w3.org/2000/svg" width="32" height="32" viewBox="0 0 32 32">
  <g id="ico_oferta" data-name="ico oferta" transform="translate(-108.5 -1024)">
    <path id="Caminho_1908" data-name="Caminho 1908" d="M27,2.5H25.375V1.25a1.25,1.25,0,0,0-2.5,0V2.5H17.187V1.25a1.25,1.25,0,1,0-2.5,0V2.5H9.062V1.25a1.25,1.25,0,1,0-2.5,0V2.5H5a5.006,5.006,0,0,0-5,5V27a5.006,5.006,0,0,0,5,5h6.362a1.25,1.25,0,1,0,0-2.5H5A2.5,2.5,0,0,1,2.5,27V7.5A2.5,2.5,0,0,1,5,5H6.562V6.25a1.25,1.25,0,1,0,2.5,0V5h5.625V6.25a1.25,1.25,0,1,0,2.5,0V5h5.687V6.25a1.25,1.25,0,0,0,2.5,0V5H27a2.5,2.5,0,0,1,2.5,2.5v4.725a1.25,1.25,0,1,0,2.5,0V7.5A5.006,5.006,0,0,0,27,2.5Z" transform="translate(108.5 1024)" fill="#71aca7"/>
    <g id="shopping-cart" transform="translate(121.215 1038.35)">
      <g id="Grupo_4478" data-name="Grupo 4478" transform="translate(12.865 12.841)">
        <g id="Grupo_4477" data-name="Grupo 4477" transform="translate(0 0)">
          <path id="Caminho_1911" data-name="Caminho 1911" d="M343.952,362.612a2.4,2.4,0,1,0,2.4,2.4A2.407,2.407,0,0,0,343.952,362.612Zm0,3.367a.962.962,0,1,1,.962-.962A.963.963,0,0,1,343.952,365.978Z" transform="translate(-341.547 -362.612)" fill="#00453e"/>
        </g>
      </g>
      <g id="Grupo_4480" data-name="Grupo 4480" transform="translate(0 0)">
        <g id="Grupo_4479" data-name="Grupo 4479" transform="translate(0 0)">
          <path id="Caminho_1912" data-name="Caminho 1912" d="M19.132,25.252a.721.721,0,0,0-.568-.277H4.453L3.8,22.259a.722.722,0,0,0-.7-.554H.721a.721.721,0,1,0,0,1.443H2.533l2.345,9.81a.721.721,0,0,0,.7.554h11.23a.721.721,0,0,0,.7-.548l1.755-7.094A.723.723,0,0,0,19.132,25.252Zm-2.888,6.817H6.148L4.8,26.418H17.642Z" transform="translate(0 -21.705)" fill="#00453e"/>
        </g>
      </g>
      <g id="Grupo_4482" data-name="Grupo 4482" transform="translate(4.136 12.841)">
        <g id="Grupo_4481" data-name="Grupo 4481" transform="translate(0 0)">
          <path id="Caminho_1913" data-name="Caminho 1913" d="M112.211,362.612a2.4,2.4,0,1,0,2.4,2.4A2.407,2.407,0,0,0,112.211,362.612Zm0,3.367a.962.962,0,1,1,.962-.962A.963.963,0,0,1,112.211,365.978Z" transform="translate(-109.806 -362.612)" fill="#00453e"/>
        </g>
      </g>
    </g>
  </g>
</svg>
